# Tiled2Unity generated file. Do not modify by hand.
# Wavefront file for 'isometric_mesh_0005.obj'

# Vertices (Count = 56)
v -1408 -480 -0.34375
v -1536 -480 -0.34375
v -1536 -288 -0.34375
v -1408 -288 -0.34375
v -1600 -576 -0.4375
v -1728 -576 -0.4375
v -1728 -384 -0.4375
v -1600 -384 -0.4375
v -1344 -512 -0.375
v -1472 -512 -0.375
v -1472 -320 -0.375
v -1344 -320 -0.375
v -1536 -608 -0.46875
v -1664 -608 -0.46875
v -1664 -416 -0.46875
v -1536 -416 -0.46875
v -704 -256 -0.125
v -832 -256 -0.125
v -832 -64 -0.125
v -704 -64 -0.125
v -1024 -416 -0.28125
v -1152 -416 -0.28125
v -1152 -224 -0.28125
v -1024 -224 -0.28125
v -960 -448 -0.3125
v -1088 -448 -0.3125
v -1088 -256 -0.3125
v -960 -256 -0.3125
v -576 -320 -0.1875
v -704 -320 -0.1875
v -704 -128 -0.1875
v -576 -128 -0.1875
v -512 -352 -0.21875
v -640 -352 -0.21875
v -640 -160 -0.21875
v -512 -160 -0.21875
v -832 -512 -0.375
v -960 -512 -0.375
v -960 -320 -0.375
v -832 -320 -0.375
v -896 -736 -0.59375
v -1024 -736 -0.59375
v -1024 -544 -0.59375
v -896 -544 -0.59375
v -1088 -832 -0.6875
v -1216 -832 -0.6875
v -1216 -640 -0.6875
v -1088 -640 -0.6875
v -832 -768 -0.625
v -960 -768 -0.625
v -960 -576 -0.625
v -832 -576 -0.625
v -1024 -864 -0.71875
v -1152 -864 -0.71875
v -1152 -672 -0.71875
v -1024 -672 -0.71875

# Texture cooridinates (Count = 4)
vt 0 0
vt 1 0
vt 1 1
vt 0 1

# Normal
vn 0 0 -1

# Mesh description
g isometric_mesh_0005

# Faces
f 1/1/1 2/2/1 3/3/1 4/4/1
f 5/1/1 6/2/1 7/3/1 8/4/1
f 9/1/1 10/2/1 11/3/1 12/4/1
f 13/1/1 14/2/1 15/3/1 16/4/1
f 17/1/1 18/2/1 19/3/1 20/4/1
f 21/1/1 22/2/1 23/3/1 24/4/1
f 25/1/1 26/2/1 27/3/1 28/4/1
f 29/1/1 30/2/1 31/3/1 32/4/1
f 33/1/1 34/2/1 35/3/1 36/4/1
f 37/1/1 38/2/1 39/3/1 40/4/1
f 41/1/1 42/2/1 43/3/1 44/4/1
f 45/1/1 46/2/1 47/3/1 48/4/1
f 49/1/1 50/2/1 51/3/1 52/4/1
f 53/1/1 54/2/1 55/3/1 56/4/1

