# Tiled2Unity generated file. Do not modify by hand.
# Wavefront file for 'isometric_mesh_0002.obj'

# Vertices (Count = 12)
v -1472 -448 -0.3125
v -1600 -448 -0.3125
v -1600 -256 -0.3125
v -1472 -256 -0.3125
v -768 -224 -0.09375
v -896 -224 -0.09375
v -896 -32 -0.09375
v -768 -32 -0.09375
v -960 -704 -0.5625
v -1088 -704 -0.5625
v -1088 -512 -0.5625
v -960 -512 -0.5625

# Texture cooridinates (Count = 4)
vt 0 0
vt 1 0
vt 1 1
vt 0 1

# Normal
vn 0 0 -1

# Mesh description
g isometric_mesh_0002

# Faces
f 1/1/1 2/2/1 3/3/1 4/4/1
f 5/1/1 6/2/1 7/3/1 8/4/1
f 9/1/1 10/2/1 11/3/1 12/4/1

